<?xml version="1.0" encoding="UTF-8"?>
<svg id="Layer_1" data-name="Layer 1" xmlns="http://www.w3.org/2000/svg" viewBox="0 0 98.82 70.81">
  <defs>
    <style>
      .cls-1 {
        fill: #221f20;
      }
    </style>
  </defs>
  <path class="cls-1" d="M.98,0h96.84c.54,0,.98.43.98.98v46.67s.02.08.02.13v11.97c0,.54-.44.98-.98.98h-43.59l6.48,8.14h5.26c.53,0,.97.44.97.98s-.44.98-.97.98h-33.16c-.54,0-.98-.44-.98-.98s.44-.98.98-.98h5.25l6.31-8.14H.98c-.54,0-.98-.44-.98-.98v-11.97s0-.09,0-.13V.98c0-.55.44-.98.97-.98h0ZM1.96,46.79h94.89V1.95H1.96v44.84ZM61.91,52.86h-25.01v1.78h25.01v-1.78ZM75.04,53.08c-.18-.18-.42-.28-.68-.28s-.5.11-.68.28c-.17.17-.28.41-.28.67s.11.51.28.68c.18.18.42.28.68.28s.51-.1.68-.28c.17-.18.28-.42.28-.68,0-.26-.11-.51-.28-.67h0ZM82.57,53.08c-.17-.18-.41-.28-.67-.28s-.51.11-.68.28c-.18.17-.28.41-.28.67s.1.51.28.68c.18.18.42.28.68.28s.5-.1.67-.28c.18-.18.28-.42.28-.68,0-.26-.1-.51-.28-.67h0ZM91.89,52.32c-.37-.36-.87-.59-1.43-.59s-1.07.23-1.43.59c-.37.37-.59.87-.59,1.43s.22,1.07.59,1.43h0c.37.37.87.59,1.43.59s1.07-.23,1.43-.58c.37-.37.59-.88.59-1.44s-.21-1.03-.55-1.39l-.04-.04ZM34.37,23.76l-1.71-2.62,20.48-13.4,1.71,2.62-20.48,13.4ZM45.67,41.02l-1.71-2.62,20.48-13.4,1.71,2.62-20.48,13.4ZM30.84,38.39l-1.71-2.62,38.84-25.41,1.71,2.62-38.84,25.41Z"/>
</svg>